<svg width="47" height="47" viewBox="0 0 47 47" fill="none" xmlns="http://www.w3.org/2000/svg">
<g clip-path="url(#clip0_166_503)">
<path d="M23.5 0C10.5214 0 0 10.5214 0 23.5C0 34.5206 7.58768 43.7683 17.8233 46.3082V30.6816H12.9776V23.5H17.8233V20.4055C17.8233 12.4071 21.4433 8.6997 29.296 8.6997C30.785 8.6997 33.354 8.99204 34.4049 9.28344V15.7929C33.8503 15.7347 32.8868 15.7055 31.6902 15.7055C27.8372 15.7055 26.3482 17.1653 26.3482 20.9601V23.5H34.0242L32.7054 30.6816H26.3482V46.828C37.9845 45.4227 47.0009 35.5151 47.0009 23.5C47 10.5214 36.4786 0 23.5 0Z" fill="black"/>
</g>
<defs>
<clipPath id="clip0_166_503">
<rect width="47" height="47" fill="white"/>
</clipPath>
</defs>
</svg>
