<svg width="46" height="46" viewBox="0 0 46 46" fill="none" xmlns="http://www.w3.org/2000/svg">
<g clip-path="url(#clip0_166_515)">
<path d="M23 4.1418C29.1453 4.1418 29.873 4.16875 32.2898 4.27656C34.5359 4.37539 35.7488 4.75273 36.5574 5.06719C37.6266 5.48047 38.3992 5.98359 39.1988 6.7832C40.0074 7.5918 40.5016 8.35547 40.9148 9.42461C41.2293 10.2332 41.6066 11.4551 41.7055 13.6922C41.8133 16.118 41.8402 16.8457 41.8402 22.982C41.8402 29.1273 41.8133 29.8551 41.7055 32.2719C41.6066 34.518 41.2293 35.7309 40.9148 36.5395C40.5016 37.6086 39.9984 38.3813 39.1988 39.1809C38.3902 39.9895 37.6266 40.4836 36.5574 40.8969C35.7488 41.2113 34.527 41.5887 32.2898 41.6875C29.8641 41.7953 29.1363 41.8223 23 41.8223C16.8547 41.8223 16.127 41.7953 13.7102 41.6875C11.4641 41.5887 10.2512 41.2113 9.44258 40.8969C8.37344 40.4836 7.60078 39.9805 6.80117 39.1809C5.99258 38.3723 5.49844 37.6086 5.08516 36.5395C4.7707 35.7309 4.39336 34.509 4.29453 32.2719C4.18672 29.8461 4.15977 29.1184 4.15977 22.982C4.15977 16.8367 4.18672 16.109 4.29453 13.6922C4.39336 11.4461 4.7707 10.2332 5.08516 9.42461C5.49844 8.35547 6.00156 7.58281 6.80117 6.7832C7.60977 5.97461 8.37344 5.48047 9.44258 5.06719C10.2512 4.75273 11.473 4.37539 13.7102 4.27656C16.127 4.16875 16.8547 4.1418 23 4.1418ZM23 0C16.7559 0 15.9742 0.0269531 13.5215 0.134766C11.0777 0.242578 9.39766 0.63789 7.94219 1.20391C6.42383 1.79687 5.13906 2.57852 3.86328 3.86328C2.57852 5.13906 1.79688 6.42383 1.20391 7.9332C0.637891 9.39766 0.242578 11.0687 0.134766 13.5125C0.0269531 15.9742 0 16.7559 0 23C0 29.2441 0.0269531 30.0258 0.134766 32.4785C0.242578 34.9223 0.637891 36.6023 1.20391 38.0578C1.79688 39.5762 2.57852 40.8609 3.86328 42.1367C5.13906 43.4125 6.42383 44.2031 7.9332 44.7871C9.39766 45.3531 11.0688 45.7484 13.5125 45.8562C15.9652 45.9641 16.7469 45.991 22.991 45.991C29.2352 45.991 30.0168 45.9641 32.4695 45.8562C34.9133 45.7484 36.5934 45.3531 38.0488 44.7871C39.5582 44.2031 40.843 43.4125 42.1188 42.1367C43.3945 40.8609 44.1852 39.5762 44.7691 38.0668C45.3352 36.6023 45.7305 34.9313 45.8383 32.4875C45.9461 30.0348 45.973 29.2531 45.973 23.009C45.973 16.7648 45.9461 15.9832 45.8383 13.5305C45.7305 11.0867 45.3352 9.40664 44.7691 7.95117C44.2031 6.42383 43.4215 5.13906 42.1367 3.86328C40.8609 2.5875 39.5762 1.79688 38.0668 1.21289C36.6023 0.646875 34.9313 0.251563 32.4875 0.14375C30.0258 0.0269531 29.2441 0 23 0Z" fill="black"/>
<path d="M23 11.1855C16.4773 11.1855 11.1855 16.4773 11.1855 23C11.1855 29.5227 16.4773 34.8145 23 34.8145C29.5227 34.8145 34.8145 29.5227 34.8145 23C34.8145 16.4773 29.5227 11.1855 23 11.1855ZM23 30.6637C18.7684 30.6637 15.3363 27.2316 15.3363 23C15.3363 18.7684 18.7684 15.3363 23 15.3363C27.2316 15.3363 30.6637 18.7684 30.6637 23C30.6637 27.2316 27.2316 30.6637 23 30.6637Z" fill="black"/>
<path d="M38.0398 10.7182C38.0398 12.2455 36.8 13.4764 35.2816 13.4764C33.7543 13.4764 32.5234 12.2365 32.5234 10.7182C32.5234 9.19082 33.7633 7.95996 35.2816 7.95996C36.8 7.95996 38.0398 9.19981 38.0398 10.7182Z" fill="black"/>
</g>
<defs>
<clipPath id="clip0_166_515">
<rect width="46" height="46" fill="white"/>
</clipPath>
</defs>
</svg>
