<svg width="46" height="46" viewBox="0 0 46 46" fill="none" xmlns="http://www.w3.org/2000/svg">
<path d="M33.9098 21.3201C33.7117 21.2251 33.5104 21.1337 33.3066 21.0462C32.9515 14.5039 29.3767 10.7585 23.3741 10.7202C23.3469 10.72 23.3199 10.72 23.2927 10.72C19.7024 10.72 16.7164 12.2525 14.8785 15.0412L18.1797 17.3058C19.5527 15.2227 21.7074 14.7786 23.2943 14.7786C23.3126 14.7786 23.331 14.7787 23.3491 14.7788C25.3256 14.7914 26.817 15.3661 27.7822 16.4867C28.4847 17.3025 28.9545 18.4299 29.1872 19.8528C27.4348 19.555 25.5397 19.4634 23.5138 19.5795C17.8069 19.9083 14.138 23.2367 14.3844 27.8616C14.5094 30.2076 15.6782 32.2259 17.6752 33.5443C19.3636 34.6588 21.5382 35.2039 23.7983 35.0805C26.7829 34.9169 29.1244 33.7781 30.7579 31.6959C31.9984 30.1147 32.7831 28.0655 33.1295 25.4835C34.5519 26.3419 35.6061 27.4716 36.1883 28.8295C37.1782 31.1379 37.236 34.9312 34.1408 38.0238C31.4289 40.733 28.1692 41.905 23.2427 41.9412C17.778 41.9007 13.6451 40.1482 10.958 36.7322C8.44176 33.5335 7.14135 28.9134 7.09283 23C7.14135 17.0866 8.44176 12.4664 10.958 9.26773C13.6451 5.8518 17.7779 4.09927 23.2427 4.05866C28.747 4.09958 32.952 5.86054 35.7419 9.29296C37.1099 10.9762 38.1413 13.0929 38.8213 15.561L42.6898 14.5289C41.8657 11.4909 40.5688 8.87314 38.804 6.7021C35.2273 2.3016 29.9962 0.0467542 23.2562 0H23.2292C16.5028 0.0465918 11.3303 2.31001 7.85545 6.72733C4.76329 10.6582 3.16826 16.1277 3.11467 22.9838L3.1145 23L3.11467 23.0162C3.16826 29.8722 4.76329 35.3419 7.85545 39.2727C11.3303 43.6899 16.5028 45.9535 23.2292 46H23.2562C29.2363 45.9585 33.4515 44.3929 36.924 40.9235C41.4672 36.3846 41.3304 30.6952 39.833 27.2025C38.7588 24.6979 36.7106 22.6637 33.9098 21.3201ZM23.5846 31.0277C21.0834 31.1686 18.4848 30.0459 18.3567 27.6412C18.2617 25.8582 19.6256 23.8687 23.7381 23.6317C24.2091 23.6046 24.6713 23.5913 25.1253 23.5913C26.6191 23.5913 28.0166 23.7364 29.2871 24.0142C28.8132 29.9323 26.0335 30.8933 23.5846 31.0277Z" fill="black"/>
</svg>
