<svg width="45" height="45" viewBox="0 0 45 45" fill="none" xmlns="http://www.w3.org/2000/svg">
<path d="M0 45L3.16312 33.4444C1.21125 30.0619 0.185625 26.2275 0.1875 22.2956C0.193125 10.0031 10.1962 0 22.4869 0C28.4512 0.001875 34.05 2.325 38.2612 6.54C42.4706 10.755 44.7881 16.3575 44.7862 22.3162C44.7806 34.6106 34.7775 44.6138 22.4869 44.6138C18.7556 44.6119 15.0787 43.6763 11.8219 41.8988L0 45ZM12.3694 37.8619C15.5119 39.7275 18.5119 40.845 22.4794 40.8469C32.6943 40.8469 41.0156 32.5331 41.0212 22.3125C41.025 12.0712 32.7431 3.76875 22.4944 3.765C12.2719 3.765 3.95625 12.0788 3.9525 22.2975C3.95062 26.4694 5.17312 29.5931 7.22624 32.8612L5.35312 39.7012L12.3694 37.8619ZM33.72 27.6169C33.5812 27.3844 33.21 27.2456 32.6512 26.9662C32.0944 26.6869 29.355 25.3388 28.8431 25.1531C28.3331 24.9675 27.9619 24.8738 27.5887 25.4325C27.2175 25.9894 26.1487 27.2456 25.8244 27.6169C25.5 27.9881 25.1737 28.035 24.6169 27.7556C24.06 27.4763 22.2637 26.8894 20.1356 24.99C18.48 23.5125 17.3606 21.6881 17.0362 21.1294C16.7119 20.5725 17.0025 20.2706 17.28 19.9931C17.5312 19.7437 17.8369 19.3425 18.1162 19.0163C18.3994 18.6938 18.4912 18.4613 18.6787 18.0881C18.8644 17.7169 18.7725 17.3906 18.6319 17.1112C18.4912 16.8338 17.3775 14.0906 16.9144 12.975C16.4606 11.8894 16.0012 12.0356 15.66 12.0187L14.5912 12C14.22 12 13.6162 12.1388 13.1062 12.6975C12.5962 13.2562 11.1562 14.6025 11.1562 17.3456C11.1562 20.0888 13.1531 22.7381 13.4306 23.1094C13.71 23.4806 17.3587 29.1094 22.9481 31.5225C24.2775 32.0962 25.3162 32.4394 26.1244 32.6963C27.4594 33.12 28.6744 33.06 29.6344 32.9175C30.705 32.7581 32.9306 31.5694 33.3956 30.2681C33.8606 28.965 33.8606 27.8494 33.72 27.6169Z" fill="black"/>
</svg>
